# xmcd CD database file
#
# Track frame offsets:
#	150
#	24255
#	50173
#	72747
#	99662
#	124462
#	155853
#	184991
#	212558
#
# Disc length: 3132 seconds
#
# Revision: 0
# Processed by: cddbd v1.5.1PL2 Copyright (c) Steve Scherf et al.
# Submitted via: CDex 1.51
#
DISCID=8d0c3a09
DTITLE=Alexandra Inzunza - en Vivo
DYEAR=2005
DGENRE=Jazz
TTITLE0=Well you Needn't
TTITLE1=Cry me a River
TTITLE2=Just you, Just me
TTITLE3=Corcovado
TTITLE4=It's Alright with me
TTITLE5=Black Coffee
TTITLE6=Yo vengo a ofrecer mi corazon
TTITLE7=I get a Kick out of you
TTITLE8=You´ve got a friend
EXTD=YEAR: 2005
EXTT0=
EXTT1=
EXTT2=
EXTT3=
EXTT4=
EXTT5=
EXTT6=
EXTT7=
EXTT8=
PLAYORDER=
